<svg width="66" height="44" viewBox="0 0 66 44" fill="none" xmlns="http://www.w3.org/2000/svg">
<path d="M6.03831 28.5553C11.8154 34.331 20.9186 34.7339 27.1679 29.7791L28.4701 31.0798L27.3886 32.1606L36.2189 40.9901C35.8902 41.5099 35.7479 41.91 35.9123 42.0729L36.3956 42.5556C37.1814 43.3427 43.3421 37.18 42.5563 36.3942L42.0729 35.9122C41.91 35.7486 41.5106 35.8896 40.9922 36.2182L32.1606 27.3886L31.0798 28.4694L29.7784 27.1679C34.7325 20.9179 34.3303 11.814 28.5553 6.03761C22.3376 -0.179449 12.2561 -0.179449 6.03831 6.03761C-0.180125 12.2567 -0.17875 22.3376 6.03831 28.5553V28.5553ZM7.9145 7.91518C13.0955 2.73349 21.4988 2.73349 26.6784 7.91518C31.8601 13.0955 31.8601 21.4988 26.6784 26.6791C21.4974 31.8615 13.0969 31.8601 7.9145 26.6791C2.73488 21.4974 2.7335 13.0969 7.9145 7.91518Z" fill="#FF7342"/>
<path d="M40.105 24.545L39.47 28H38.61L38.085 25.245L37.545 28H36.71L36.085 24.545H36.74L37.18 27.475L37.745 24.545H38.445L39 27.475L39.48 24.545H40.105ZM42.5946 24.545L42.5246 25.035H41.2496V26H42.3596V26.49H41.2496V27.505H42.6146V28H40.5896V24.545H42.5946ZM44.9359 26.17C45.1726 26.2133 45.3626 26.2983 45.5059 26.425C45.6526 26.5517 45.7259 26.745 45.7259 27.005C45.7259 27.365 45.5993 27.6217 45.3459 27.775C45.0926 27.925 44.7376 28 44.2809 28H43.2409V24.545H44.1459C45.0993 24.545 45.5759 24.8383 45.5759 25.425C45.5759 25.6283 45.5143 25.795 45.3909 25.925C45.2676 26.0517 45.1159 26.1333 44.9359 26.17ZM43.9009 25.03V25.965H44.3059C44.4893 25.965 44.6343 25.925 44.7409 25.845C44.8476 25.7617 44.9009 25.64 44.9009 25.48C44.9009 25.3133 44.8443 25.1967 44.7309 25.13C44.6209 25.0633 44.4476 25.03 44.2109 25.03H43.9009ZM44.2859 27.505C44.5293 27.505 44.7143 27.4683 44.8409 27.395C44.9709 27.3217 45.0359 27.1833 45.0359 26.98C45.0359 26.7833 44.9743 26.6417 44.8509 26.555C44.7309 26.4683 44.5659 26.425 44.3559 26.425H43.9009V27.505H44.2859ZM47.1573 24.545C47.694 24.545 48.1223 24.6667 48.4423 24.91C48.7657 25.1533 48.9273 25.6017 48.9273 26.255C48.9273 26.895 48.769 27.3467 48.4523 27.61C48.1357 27.87 47.734 28 47.2473 28H46.3073V24.545H47.1573ZM46.9673 25.04V27.505H47.2923C47.5857 27.505 47.8157 27.415 47.9823 27.235C48.149 27.0517 48.2323 26.725 48.2323 26.255C48.2323 25.9283 48.189 25.6767 48.1023 25.5C48.019 25.32 47.9073 25.1983 47.7673 25.135C47.6307 25.0717 47.4657 25.04 47.2723 25.04H46.9673ZM51.5545 24.545L51.4845 25.035H50.2095V26H51.3195V26.49H50.2095V27.505H51.5745V28H49.5495V24.545H51.5545ZM53.1471 24.47C53.3904 24.47 53.6021 24.505 53.7821 24.575C53.9621 24.645 54.1304 24.7517 54.2871 24.895L53.9621 25.27C53.8387 25.1667 53.7137 25.0917 53.5871 25.045C53.4637 24.9983 53.3304 24.975 53.1871 24.975C53.0271 24.975 52.8971 25.0117 52.7971 25.085C52.7004 25.155 52.6521 25.255 52.6521 25.385C52.6521 25.4717 52.6704 25.5433 52.7071 25.6C52.7471 25.6567 52.8171 25.71 52.9171 25.76C53.0171 25.81 53.1654 25.865 53.3621 25.925C53.7021 26.0317 53.9571 26.165 54.1271 26.325C54.3004 26.4817 54.3871 26.7117 54.3871 27.015C54.3871 27.2217 54.3337 27.405 54.2271 27.565C54.1237 27.725 53.9737 27.85 53.7771 27.94C53.5804 28.03 53.3471 28.075 53.0771 28.075C52.8137 28.075 52.5771 28.0333 52.3671 27.95C52.1604 27.8633 51.9821 27.7467 51.8321 27.6L52.1721 27.22C52.3054 27.3333 52.4437 27.42 52.5871 27.48C52.7304 27.5367 52.8887 27.565 53.0621 27.565C53.2521 27.565 53.4054 27.52 53.5221 27.43C53.6387 27.34 53.6971 27.2133 53.6971 27.05C53.6971 26.95 53.6771 26.8683 53.6371 26.805C53.5971 26.7383 53.5287 26.68 53.4321 26.63C53.3354 26.5767 53.1954 26.5217 53.0121 26.465C52.6454 26.3517 52.3804 26.215 52.2171 26.055C52.0537 25.895 51.9721 25.685 51.9721 25.425C51.9721 25.235 52.0221 25.0683 52.1221 24.925C52.2221 24.7817 52.3604 24.67 52.5371 24.59C52.7171 24.51 52.9204 24.47 53.1471 24.47ZM55.6099 24.545V28H54.9499V24.545H55.6099ZM57.8146 24.47C58.0413 24.47 58.2413 24.505 58.4146 24.575C58.5913 24.6417 58.758 24.7417 58.9146 24.875L58.5596 25.245C58.4363 25.1483 58.3196 25.0783 58.2096 25.035C58.103 24.9917 57.978 24.97 57.8346 24.97C57.568 24.97 57.3496 25.0767 57.1796 25.29C57.0096 25.5033 56.9246 25.83 56.9246 26.27C56.9246 26.73 56.9913 27.0617 57.1246 27.265C57.2613 27.4683 57.468 27.57 57.7446 27.57C57.9546 27.57 58.138 27.525 58.2946 27.435V26.535H57.7746L57.7046 26.045H58.9446V27.735C58.5713 27.9617 58.1746 28.075 57.7546 28.075C57.2613 28.075 56.883 27.9217 56.6196 27.615C56.3596 27.3083 56.2296 26.86 56.2296 26.27C56.2296 25.8933 56.2996 25.57 56.4396 25.3C56.583 25.0267 56.7746 24.82 57.0146 24.68C57.2546 24.54 57.5213 24.47 57.8146 24.47ZM62.1581 28H61.3031L60.1181 25.205C60.1481 25.4517 60.1698 25.675 60.1831 25.875C60.1998 26.075 60.2081 26.3133 60.2081 26.59V28H59.6081V24.545H60.4431L61.6481 27.345C61.6281 27.2117 61.6081 27.0367 61.5881 26.82C61.5681 26.6 61.5581 26.3817 61.5581 26.165V24.545H62.1581V28Z" fill="#7D7D7D"/>
<path d="M8.976 12.088C9.676 12.088 10.2827 12.1907 10.796 12.396C11.3187 12.592 11.7993 12.8953 12.238 13.306L11.258 14.44C10.9127 14.16 10.5673 13.9547 10.222 13.824C9.87667 13.6933 9.508 13.628 9.116 13.628C8.68667 13.628 8.34133 13.7213 8.08 13.908C7.828 14.0853 7.702 14.342 7.702 14.678C7.702 14.9113 7.75333 15.1027 7.856 15.252C7.968 15.4013 8.15933 15.5413 8.43 15.672C8.70067 15.8027 9.10667 15.952 9.648 16.12C10.6093 16.428 11.328 16.8107 11.804 17.268C12.28 17.716 12.518 18.36 12.518 19.2C12.518 19.7973 12.3687 20.3247 12.07 20.782C11.7713 21.23 11.3373 21.5847 10.768 21.846C10.1987 22.098 9.53133 22.224 8.766 22.224C8.00067 22.224 7.31933 22.1027 6.722 21.86C6.12467 21.6173 5.61133 21.286 5.182 20.866L6.232 19.704C6.60533 20.0213 6.99267 20.264 7.394 20.432C7.79533 20.5907 8.234 20.67 8.71 20.67C9.214 20.67 9.61533 20.5533 9.914 20.32C10.222 20.0867 10.376 19.76 10.376 19.34C10.376 19.0787 10.32 18.864 10.208 18.696C10.1053 18.5187 9.92333 18.36 9.662 18.22C9.40067 18.08 9.02267 17.9353 8.528 17.786C7.47333 17.4593 6.71733 17.0673 6.26 16.61C5.812 16.1527 5.588 15.5553 5.588 14.818C5.588 14.2767 5.73267 13.8007 6.022 13.39C6.31133 12.97 6.71267 12.648 7.226 12.424C7.73933 12.2 8.32267 12.088 8.976 12.088ZM19.72 12.312L19.496 13.81H15.996V16.33H19.048V17.814H15.996V20.488H19.748V22H13.938V12.312H19.72ZM24.9788 12.088C25.8654 12.088 26.6308 12.2887 27.2748 12.69C27.9188 13.082 28.4134 13.656 28.7588 14.412C29.1041 15.168 29.2768 16.0827 29.2768 17.156C29.2768 18.2107 29.1041 19.1207 28.7588 19.886C28.4134 20.642 27.9188 21.2207 27.2748 21.622C26.6308 22.0233 25.8654 22.224 24.9788 22.224C24.0921 22.224 23.3221 22.028 22.6688 21.636C22.0248 21.2347 21.5301 20.656 21.1848 19.9C20.8394 19.1347 20.6668 18.22 20.6668 17.156C20.6668 16.1107 20.8394 15.21 21.1848 14.454C21.5394 13.6887 22.0388 13.1053 22.6828 12.704C23.3361 12.2933 24.1014 12.088 24.9788 12.088ZM24.9788 13.628C24.2694 13.628 23.7328 13.908 23.3688 14.468C23.0141 15.028 22.8368 15.924 22.8368 17.156C22.8368 18.388 23.0188 19.284 23.3828 19.844C23.7468 20.404 24.2788 20.684 24.9788 20.684C25.6881 20.684 26.2201 20.4087 26.5748 19.858C26.9294 19.298 27.1068 18.3973 27.1068 17.156C27.1068 15.9147 26.9294 15.0187 26.5748 14.468C26.2201 13.908 25.6881 13.628 24.9788 13.628Z" fill="#FF7342"/>
<path d="M37.13 18.206H36.08V22H34.022V12.312H37.046C38.3433 12.312 39.3187 12.5547 39.972 13.04C40.6253 13.516 40.952 14.2393 40.952 15.21C40.952 15.8447 40.7933 16.3673 40.476 16.778C40.168 17.1887 39.6873 17.5387 39.034 17.828L41.54 22H39.202L37.13 18.206ZM36.08 16.75H37.158C37.7087 16.75 38.124 16.6287 38.404 16.386C38.684 16.134 38.824 15.742 38.824 15.21C38.824 14.7153 38.6747 14.356 38.376 14.132C38.0867 13.8987 37.6293 13.782 37.004 13.782H36.08V16.75ZM47.7456 22L47.1996 19.83H44.1616L43.6156 22H41.4736L44.4556 12.312H46.9616L49.9296 22H47.7456ZM44.5536 18.304H46.8076L45.6736 13.838L44.5536 18.304ZM57.2688 12.312L54.1608 18.346V22H52.1028V18.36L48.9948 12.312H51.2488L53.1808 16.708L55.0988 12.312H57.2688ZM62.6069 22L62.0609 19.83H59.0229L58.4769 22H56.3349L59.3169 12.312H61.8229L64.7909 22H62.6069ZM59.4149 18.304H61.6689L60.5349 13.838L59.4149 18.304Z" fill="#6D6D6D"/>
</svg>
